<mxfile host="app.diagrams.net" modified="2021-09-09T04:57:11.650Z" agent="5.0 (Macintosh; Intel Mac OS X 10_15_7) AppleWebKit/537.36 (KHTML, like Gecko) Chrome/92.0.4515.159 Safari/537.36 Edg/92.0.902.84" etag="MzAANsd9rWyXzUNiPPrQ" version="14.9.9" type="github">
  <diagram id="re4AwrysHQRK_FtqDIQZ" name="Page-1">
    <mxGraphModel dx="946" dy="646" grid="1" gridSize="10" guides="1" tooltips="1" connect="1" arrows="1" fold="1" page="1" pageScale="1" pageWidth="850" pageHeight="1100" math="0" shadow="0">
      <root>
        <mxCell id="0" />
        <mxCell id="1" parent="0" />
        <mxCell id="n3LVheTI0n0sLJ_w8s6I-1" value="Welcome to the world of skyrim!&lt;br&gt;Quick description of skyrim..." style="text;html=1;strokeColor=none;fillColor=none;align=center;verticalAlign=middle;whiteSpace=wrap;rounded=0;" vertex="1" parent="1">
          <mxGeometry x="191" y="30" width="360" height="90" as="geometry" />
        </mxCell>
        <mxCell id="n3LVheTI0n0sLJ_w8s6I-2" value="" style="swimlane;startSize=0;" vertex="1" parent="1">
          <mxGeometry x="40" y="130" width="200" height="200" as="geometry" />
        </mxCell>
        <mxCell id="n3LVheTI0n0sLJ_w8s6I-13" value="image of one race" style="text;html=1;strokeColor=none;fillColor=none;align=center;verticalAlign=middle;whiteSpace=wrap;rounded=0;" vertex="1" parent="n3LVheTI0n0sLJ_w8s6I-2">
          <mxGeometry x="60" y="40" width="90" height="100" as="geometry" />
        </mxCell>
        <mxCell id="n3LVheTI0n0sLJ_w8s6I-3" value="" style="swimlane;startSize=0;" vertex="1" parent="1">
          <mxGeometry x="300" y="130" width="200" height="200" as="geometry" />
        </mxCell>
        <mxCell id="n3LVheTI0n0sLJ_w8s6I-4" value="" style="swimlane;startSize=0;" vertex="1" parent="1">
          <mxGeometry x="580" y="140" width="200" height="200" as="geometry" />
        </mxCell>
        <mxCell id="n3LVheTI0n0sLJ_w8s6I-5" value="" style="swimlane;startSize=0;" vertex="1" parent="1">
          <mxGeometry x="40" y="390" width="200" height="200" as="geometry" />
        </mxCell>
        <mxCell id="n3LVheTI0n0sLJ_w8s6I-6" value="" style="swimlane;startSize=0;" vertex="1" parent="1">
          <mxGeometry x="300" y="400" width="200" height="200" as="geometry" />
        </mxCell>
        <mxCell id="n3LVheTI0n0sLJ_w8s6I-7" value="" style="swimlane;startSize=0;" vertex="1" parent="1">
          <mxGeometry x="590" y="410" width="200" height="200" as="geometry" />
        </mxCell>
        <mxCell id="n3LVheTI0n0sLJ_w8s6I-8" value="" style="swimlane;startSize=0;" vertex="1" parent="1">
          <mxGeometry x="40" y="650" width="200" height="200" as="geometry" />
        </mxCell>
        <mxCell id="n3LVheTI0n0sLJ_w8s6I-9" value="" style="swimlane;startSize=0;" vertex="1" parent="1">
          <mxGeometry x="300" y="660" width="200" height="200" as="geometry" />
        </mxCell>
        <mxCell id="n3LVheTI0n0sLJ_w8s6I-10" value="" style="swimlane;startSize=0;" vertex="1" parent="1">
          <mxGeometry x="610" y="670" width="200" height="200" as="geometry" />
        </mxCell>
        <mxCell id="n3LVheTI0n0sLJ_w8s6I-11" value="" style="swimlane;startSize=0;" vertex="1" parent="1">
          <mxGeometry x="170" y="880" width="200" height="200" as="geometry" />
        </mxCell>
        <mxCell id="n3LVheTI0n0sLJ_w8s6I-12" value="" style="swimlane;startSize=0;" vertex="1" parent="1">
          <mxGeometry x="450" y="880" width="200" height="200" as="geometry" />
        </mxCell>
        <mxCell id="n3LVheTI0n0sLJ_w8s6I-14" value="drop down menu of race bio/character traits" style="text;html=1;strokeColor=none;fillColor=none;align=center;verticalAlign=middle;whiteSpace=wrap;rounded=0;" vertex="1" parent="1">
          <mxGeometry x="110" y="330" width="100" height="60" as="geometry" />
        </mxCell>
      </root>
    </mxGraphModel>
  </diagram>
</mxfile>
